<svg enable-background="new 0 0 496.863 496.863" viewBox="0 0 496.863 496.863" xmlns="http://www.w3.org/2000/svg"><g fill="#010002"><path d="m397.225 376.505 8.765-8.764c-34.032-29.585-77.706-78.667-115.202-115.058 4.627-9.247 1.835-20.696-7.007-26.578-40.439-26.865-55.751-46.149-73.473-68.485-7.938-10.007-16.158-20.356-27.052-32.173-1.001-1.09-2.092-2.036-3.245-2.854-4.2-3.903-8.872-7.21-13.695-9.539 0 0-5.17-2.837-11.057-3.961-5.634-1.073-12.173-1.113-12.173-1.113h-.154c-.637.018-1.288.137-1.92.175-.472.021-.929-.039-1.402 0-.771.084-1.553.246-2.325.355-.823.104-1.622.211-2.444.357-40.544 6.36-83.214 37.981-130.265 96.637-7.187 8.959-5.752 22.042 3.206 29.225 3.838 3.076 8.435 4.572 13 4.572 6.086 0 12.117-2.661 16.225-7.78 20.211-25.188 37.911-42.843 53.247-55.232l-17.072 79.668c-2.448 11.457.751 22.018 7.12 30.606l-5.375 82.018-34.183 88.35c-5.265 13.627 1.513 28.963 15.133 34.223 3.143 1.208 6.373 1.788 9.548 1.788 10.607 0 20.623-6.429 24.683-16.918l35.633-92.14c.965-2.503 1.546-5.134 1.725-7.804l3.131-47.737 31.441 49.67 26.036 95.287c3.154 11.824 13.854 19.641 25.547 19.641 2.256 0 4.548-.285 6.83-.906 14.116-3.751 22.509-18.243 18.751-32.371l-27.076-99.188c-.683-2.591-1.772-5.067-3.206-7.327l-42.865-67.723c1.367-2.725 2.524-5.617 3.223-8.882l17.529-81.793c16.409 20.108 35.285 40.285 73.989 65.986 3.536 2.35 7.525 3.479 11.484 3.479 4.021 0 7.931-1.295 11.348-3.544 34.678 33.663 78.308 85.093 113.597 115.833z"/><circle cx="179.169" cy="57.468" r="53.546"/><path d="m342.466 382.65-18.499-14.859c-4.182-3.357-10.297-2.695-13.659 1.489-3.36 4.185-2.693 10.299 1.489 13.66l18.878 15.163v41.222c0 .228.029.447.065.663l-16.618 31.936c-2.477 4.76-.627 10.627 4.134 13.104 1.434.745 2.966 1.099 4.478 1.099 3.507 0 6.895-1.905 8.626-5.231l16.72-32.13 18.709 32.492c1.798 3.122 5.066 4.869 8.43 4.869 1.645 0 3.312-.418 4.838-1.298 4.65-2.678 6.25-8.618 3.572-13.268l-16.325-28.349h60.462v33.196c0 5.365 4.351 9.716 9.717 9.716 5.365 0 9.716-4.351 9.716-9.716v-36.382c.04-.229.069-.462.069-.702v-30.726l-45.255-25.949z"/><path d="m472.414 362.901c-6.006-5.659-8.02-12.281-14.763-17.081-1.174-.835-2.361-1.682-3.615-2.391-.751-.422-.995-.912-.909-1.729.287-2.784.57-5.572.793-8.362.397-4.997-1.043-9.546-5.056-12.493-1.612-1.184-9.561-5.033-13.021 8.138-.756 2.867-1.774 5.717-3.136 8.331-5.001 9.604-11.342 18.375-17.416 27.313-2.771 4.078-5.537 8.149-8.299 12.215l42.489 24.198s8.189-8.955 9.339-8.452c1.596.704 3.201 1.394 4.798 2.089 4.679 2.034 9.557 2.978 14.668 2.677 8.687-.505 17.731-5.118 18.559-15.531.763-9.556-22.401-17.01-24.431-18.922z"/></g></svg>