<svg enable-background="new 0 0 79.538 79.537" height="79.537" viewBox="0 0 79.538 79.537" width="79.538" xmlns="http://www.w3.org/2000/svg"><path d="m22.045 11.273c0 3.218-2.62 5.828-5.843 5.828-3.226 0-5.844-2.61-5.844-5.828 0-3.219 2.612-5.833 5.844-5.833 3.223 0 5.843 2.61 5.843 5.833zm-5.23 39.942 1.264 21.525c0 .751.608 1.372 1.362 1.372.758 0 1.372-.621 1.372-1.372l1.167-21.525h3.806l-3.933-24.13 7.922 15.778c.29.694 1.09 1.025 1.792.735.694-.3 1.023-1.093.73-1.8 0 0-5.805-15.7-7.241-18.625-1.437-2.929-2.848-4.71-8.298-4.71h-1.113c-5.438 0-6.864 1.776-8.288 4.71-1.432 2.925-7.244 18.625-7.244 18.625-.303.707.026 1.5.715 1.8.702.295 1.501-.041 1.805-.735l7.922-15.778-3.94 24.13h3.801l1.183 21.525c0 .751.616 1.372 1.362 1.372.774 0 1.385-.621 1.385-1.372l1.175-21.525zm46.518-45.79c-3.226 0-5.851 2.609-5.851 5.833 0 3.223 2.619 5.833 5.851 5.833 3.211 0 5.825-2.61 5.825-5.833 0-3.224-2.61-5.833-5.825-5.833zm6.047 34.333.389-12.688 7.125 15.783c.301.694 1.104 1.025 1.797.725.709-.301 1.03-1.093.74-1.8 0 0-5.018-15.7-6.451-18.623-1.439-2.926-3.651-4.702-9.094-4.702h-1.118c-5.437 0-7.653 1.776-9.093 4.702-1.424 2.923-6.438 18.623-6.438 18.623-.298.707.025 1.499.722 1.8.699.306 1.507-.031 1.787-.725l7.141-15.783.383 12.688-1.123 31.9c-.078 1.258.869 2.355 2.123 2.443.062.011.118.011.165.011 1.196 0 2.206-.922 2.299-2.134l2.584-26.269 2.615 26.269c.072 1.217 1.087 2.134 2.273 2.134.057 0 .108 0 .165-.011 1.264-.088 2.206-1.186 2.123-2.443l-1.129-31.9zm-29.615 1.129c-1.983 0-3.591 1.598-3.591 3.57 0 1.979 1.608 3.578 3.591 3.578 1.978 0 3.583-1.6 3.583-3.578 0-1.973-1.605-3.57-3.583-3.57zm0 21.078s1.613 11.189 1.613 11.199c.223.555.735.948 1.362.948.642 0 1.183-.43 1.377-1.01.011-.036.049-.699.011-.808l-.663-13.753.212-4.728c.187-1.605.223-1.124 2.048-2.217 1.872-1.118 5.036-6.043 5.191-6.281.15-.248.44-.673.497-.952.088-.497-.233-.963-.72-1.067-.373-.062-.688.134-.932.394-.244.269-3.895 5.126-6.631 5.592-.613-.088-1.276-.414-3.021-.414h-.689c-1.735 0-2.397.331-3.017.414-2.742-.466-6.395-5.323-6.651-5.592-.233-.26-.536-.456-.917-.394-.487.104-.815.57-.714 1.067.052.279.339.704.497.952.158.238 3.334 5.163 5.191 6.281 1.831 1.093 1.872.611 2.048 2.217l.205 4.728-.657 13.753c-.037.113 0 .776.028.808.189.58.72 1.01 1.367 1.01.616 0 1.144-.394 1.351-.948-.005-.01 1.614-11.199 1.614-11.199" fill="#010002"/></svg>