<svg enable-background="new 0 0 470.642 470.642" viewBox="0 0 470.642 470.642" xmlns="http://www.w3.org/2000/svg"><g fill="#010002"><path d="m223.821 76.022c10.333-.333 19-4.333 26-12s10.333-16.667 10-27c-.333-10.335-4.167-19.168-11.5-26.5-7.333-7.333-16.167-10.833-26.5-10.5s-19 4.333-26 12-10.5 16.667-10.5 27 3.833 19.167 11.5 26.5 16.667 10.833 27 10.5z"/><path d="m350.321 202.522-55-30-45-72c-8.667-10.667-19.333-16-32-16-8.667 0-17 3.667-25 11l-68 69c-2 2.667-3.333 5.667-4 9l-9 77v2c0 4.666 1.667 8.666 5 12 3.333 3.332 7.333 5 12 5s8.5-1.668 11.5-5c3-3.334 4.833-7 5.5-11l7-66 24-24-22 184-39 87.001c-1.333 4-2 7.658-2 11.002 0 7.322 2.5 13.5 7.5 18.5s11.167 7.164 18.5 6.5c10 0 17.333-4.678 22-14l42-94.002c0-.67.333-1.835 1-3.5.668-1.67 1.335-3.17 2-4.5.667-1.335 1-2.67 1-4l5-45.001 43 148.003c4.667 12 13 17.666 25 17 6.667 0 12.5-2.5 17.5-7.5s7.5-11.178 7.5-18.5c0-.678-.167-1.5-.5-2.5s-.5-1.836-.5-2.502l-60-205.001 7-67 17 27c1.333 2 3 3.667 5 5l59 33c4 1.333 6.667 2 8 2 4.667 0 8.667-1.833 12-5.5 3.333-3.668 5-7.834 5-12.5 0-6-2.667-10.667-8-14z"/></g></svg>